<?xml version="1.0" encoding="UTF-8" standalone="no" ?>
<!DOCTYPE svg PUBLIC "-//W3C//DTD SVG 1.1//EN" "http://www.w3.org/Graphics/SVG/1.1/DTD/svg11.dtd">
<svg xmlns="http://www.w3.org/2000/svg" xmlns:xlink="http://www.w3.org/1999/xlink" version="1.1" width="1280" height="1024" viewBox="0 0 1280 1024" xml:space="preserve">
<desc>Created with Fabric.js 3.6.3</desc>
<defs>
</defs>
<g transform="matrix(1.9692780337941629 0 0 1.9692780337941629 640.0153846153846 512.012312418764)" id="background-logo"  >
<rect style="stroke: none; stroke-width: 1; stroke-dasharray: none; stroke-linecap: butt; stroke-dashoffset: 0; stroke-linejoin: miter; stroke-miterlimit: 4; fill: rgb(255,255,255); fill-rule: nonzero; opacity: 1;"  paint-order="stroke"  x="-325" y="-260" rx="0" ry="0" width="650" height="520" />
</g>
<g transform="matrix(1.9692780337941629 0 0 1.9692780337941629 640.0153846153846 366.6720113564004)" id="logo-logo"  >
<g style=""  paint-order="stroke"   >
		<g transform="matrix(0.19465576045671046 0 0 -0.19465576045671043 0 63.170703423752826)"  >
<linearGradient id="SVGID_1_5_5_5_49450" gradientUnits="userSpaceOnUse" gradientTransform="matrix(0 -690.26 -1326.98 0 1292.85 579.267)"  x1="0" y1="0" x2="0.99952501" y2="0">
<stop offset="0%" style="stop-color:rgb(170,70,169);stop-opacity: 1"/>
<stop offset="100%" style="stop-color:rgb(92,54,156);stop-opacity: 1"/>
</linearGradient>
<path style="stroke: none; stroke-width: 1; stroke-dasharray: none; stroke-linecap: butt; stroke-dashoffset: 0; stroke-linejoin: miter; stroke-miterlimit: 4; fill: url(#SVGID_1_5_5_5_49450); fill-rule: nonzero; opacity: 1;"  paint-order="stroke"  transform=" translate(-629.3577898770434, -397.717)" d="M 1256 161.219 C 1272.85 77.8359 1209.09 0 1124.21 0 H 629.465 H 629.25 H 134.504 C 49.6289 0 -14.1328 77.8359 2.71484 161.219 L 131.73 795.434 C 88.2266 575.785 411.734 343.551 440.523 323.504 c 1.278 -1.066 1.918 -1.492 1.918 -1.492 c 50.754 -37.532 114.946 -65.68 186.598 -76.129 c 0.211 0 0.426 0 0.641 0 c 71.652 10.449 135.84 38.597 186.593 76.129 c 0 0 0.641 0.426 1.922 1.492 c 28.789 20.047 352.295 252.281 308.785 471.93 L 1256 161.219" stroke-linecap="round" />
</g>
		<g transform="matrix(0.19640156689013175 0 0 -0.19640156689013172 -0.0004318233320645959 -30.602364898896894)"  >
<linearGradient id="SVGID_2_6_6_6_49451" gradientUnits="userSpaceOnUse" gradientTransform="matrix(0 -1038.32 -1122.26 0 1190.49 1450.05)"  x1="0" y1="0" x2="1" y2="0">
<stop offset="0%" style="stop-color:rgb(79,198,244);stop-opacity: 1"/>
<stop offset="100%" style="stop-color:rgb(41,85,173);stop-opacity: 1"/>
</linearGradient>
<path style="stroke: none; stroke-width: 1; stroke-dasharray: none; stroke-linecap: butt; stroke-dashoffset: 0; stroke-linejoin: miter; stroke-miterlimit: 4; fill: url(#SVGID_2_6_6_6_49451); fill-rule: nonzero; opacity: 1;"  paint-order="stroke"  transform=" translate(-629.3555912014484, -883.5065114093272)" d="m 1126.98 795.434 c 0 0.214 -0.21 0.64 -0.21 0.855 l -46.73 229.551 c -5.2 25.51 -27.63 43.84 -53.67 43.84 H 913.945 v 88.93 c 0 161.59 -135.41 292.45 -298.933 284.56 c -153.055 -7.38 -270.668 -139.37 -270.668 -292.61 v -80.88 h -112 c -26.035 0 -48.473 -18.33 -53.664 -43.84 L 131.945 796.289 c 0 -0.215 -0.215 -0.641 -0.215 -0.855 c -43.5034 -219.649 280.004 -451.883 308.793 -471.93 c -102.574 77.199 -149.492 193.637 -91.699 280.43 c 77.621 116.437 258.25 60.136 280.641 -34.547 c 22.18 94.683 202.805 150.984 280.43 34.547 c 57.789 -86.793 10.875 -203.231 -91.704 -280.43 c 28.793 20.047 352.299 252.281 308.789 471.93 z m -726.125 62.058 c -33.265 0 -60.136 26.656 -60.136 59.922 c 0 33.055 26.871 59.926 60.136 59.926 c 33.055 0 59.926 -26.871 59.926 -59.926 c 0 -33.266 -26.871 -59.922 -59.926 -59.922 z m 228.61 212.188 H 457.367 v 88.93 c 0 94.68 76.985 171.88 171.672 171.88 c 94.899 0 171.883 -77.2 171.883 -171.88 v -88.93 z M 857.434 857.277 c -33.055 0 -59.926 26.871 -59.926 60.137 c 0 33.055 26.871 59.926 59.926 59.926 c 33.265 0 60.136 -26.871 60.136 -59.926 c 0 -33.266 -26.871 -60.137 -60.136 -60.137" stroke-linecap="round" />
</g>
</g>
</g>
<g transform="matrix(1.9692780337941629 0 0 1.9692780337941629 639.7961485842786 763.6563436783526)" id="text-logo-path"  >
<path style="stroke: none; stroke-width: 0; stroke-dasharray: none; stroke-linecap: butt; stroke-dashoffset: 0; stroke-linejoin: miter; stroke-miterlimit: 4; fill: rgb(120,60,160); fill-rule: nonzero; opacity: 1;"  paint-order="stroke"  transform=" translate(-177.875, 14.530000000000001)" d="M 0 -29.53 L 0 -29.53 Q 0 -32.79 1.8 -35.07 Q 3.59 -37.35 6.71 -38.81 Q 9.82 -40.27 13.97 -40.94 Q 18.12 -41.61 22.85 -41.61 L 22.85 -41.61 Q 25.1 -41.61 27.25 -41.57 Q 29.39 -41.53 31.16 -41.44 Q 32.93 -41.36 34.21 -41.25 Q 35.49 -41.14 36.07 -41 L 36.07 -41 Q 36.63 -40.86 36.96 -40.69 Q 37.29 -40.52 37.46 -40.3 Q 37.63 -40.08 37.68 -39.79 Q 37.74 -39.49 37.74 -39.1 L 37.74 -39.1 Q 37.74 -38.77 37.66 -38.37 Q 37.57 -37.96 37.41 -37.61 Q 37.24 -37.27 36.99 -37.02 Q 36.74 -36.77 36.38 -36.77 L 36.38 -36.77 Q 36.15 -36.77 35.89 -36.96 Q 35.63 -37.16 35.14 -37.46 Q 34.65 -37.77 33.83 -38.1 Q 33.01 -38.44 31.63 -38.74 Q 30.25 -39.05 28.21 -39.24 Q 26.16 -39.44 23.27 -39.44 L 23.27 -39.44 L 23.27 -21.6 L 34.82 -21.6 L 34.82 -19.15 L 23.27 -19.15 L 23.27 -8.27 Q 23.27 -6.96 23.66 -6.03 Q 24.05 -5.09 24.77 -4.48 Q 25.49 -3.87 26.51 -3.59 Q 27.53 -3.31 28.78 -3.31 L 28.78 -3.31 Q 30.2 -3.31 31.62 -3.6 Q 33.04 -3.9 34.3 -4.34 Q 35.57 -4.79 36.61 -5.34 Q 37.66 -5.9 38.3 -6.43 L 38.3 -6.43 L 39.38 -5.23 Q 38.69 -4.68 37.52 -3.72 Q 36.35 -2.76 34.66 -1.84 Q 32.98 -0.92 30.74 -0.24 Q 28.5 0.45 25.66 0.45 L 25.66 0.45 Q 24.71 0.45 23.5 0.35 Q 22.29 0.25 21.01 -0.04 Q 19.73 -0.33 18.49 -0.9 Q 17.26 -1.48 16.3 -2.42 Q 15.34 -3.37 14.74 -4.75 Q 14.14 -6.12 14.14 -8.04 L 14.14 -8.04 L 14.14 -19.15 L 9.8 -19.15 L 9.8 -21.6 L 14.14 -21.6 L 14.14 -39.1 Q 13.25 -39.02 12.09 -38.78 Q 10.94 -38.55 9.73 -38.12 Q 8.52 -37.68 7.35 -37.1 Q 6.18 -36.52 5.26 -35.74 Q 4.34 -34.96 3.77 -34 Q 3.2 -33.04 3.2 -31.92 L 3.2 -31.92 Q 3.2 -31.03 3.44 -30.5 Q 3.67 -29.98 3.98 -29.71 Q 4.29 -29.45 4.61 -29.38 Q 4.93 -29.31 5.07 -29.31 L 5.07 -29.31 Q 5.76 -29.31 6.21 -29.54 Q 6.65 -29.78 7.01 -30.04 Q 7.38 -30.31 7.7 -30.55 Q 8.02 -30.78 8.43 -30.78 L 8.43 -30.78 Q 8.77 -30.78 9.14 -30.63 Q 9.52 -30.48 9.84 -30.14 Q 10.16 -29.81 10.38 -29.27 Q 10.6 -28.72 10.6 -27.94 L 10.6 -27.94 Q 10.6 -26.83 10.17 -26.01 Q 9.74 -25.19 9.06 -24.66 Q 8.38 -24.13 7.5 -23.87 Q 6.62 -23.6 5.76 -23.6 L 5.76 -23.6 Q 4.43 -23.6 3.35 -24.06 Q 2.28 -24.52 1.53 -25.33 Q 0.78 -26.13 0.39 -27.21 Q 0 -28.28 0 -29.53 Z M 40.8 -7.18 L 40.8 -7.18 Q 40.8 -9.71 41.8 -11.33 Q 42.81 -12.94 44.43 -14.04 Q 46.06 -15.14 48.14 -15.92 Q 50.21 -16.7 52.38 -17.56 L 52.38 -17.56 Q 53.99 -18.2 54.73 -19.47 Q 55.47 -20.73 55.47 -22.07 L 55.47 -22.07 Q 55.47 -24.13 54.26 -25.37 Q 53.05 -26.61 50.96 -26.61 L 50.96 -26.61 Q 50.01 -26.61 49.21 -26.38 Q 48.4 -26.16 47.82 -25.83 Q 47.23 -25.49 46.9 -25.09 Q 46.56 -24.69 46.56 -24.33 L 46.56 -24.33 Q 46.56 -23.91 46.99 -23.73 Q 47.43 -23.55 47.95 -23.31 Q 48.48 -23.07 48.91 -22.64 Q 49.35 -22.21 49.35 -21.32 L 49.35 -21.32 Q 49.35 -20.73 49.11 -20.25 Q 48.87 -19.76 48.47 -19.39 Q 48.07 -19.01 47.52 -18.8 Q 46.98 -18.59 46.4 -18.59 L 46.4 -18.59 Q 44.84 -18.59 43.88 -19.65 Q 42.92 -20.71 42.92 -22.46 L 42.92 -22.46 Q 42.92 -24.16 43.81 -25.37 Q 44.7 -26.58 46.13 -27.36 Q 47.56 -28.14 49.37 -28.51 Q 51.18 -28.89 52.99 -28.89 L 52.99 -28.89 Q 55.16 -28.89 57.14 -28.42 Q 59.12 -27.94 60.63 -26.91 Q 62.15 -25.88 63.05 -24.3 Q 63.96 -22.71 63.96 -20.46 L 63.96 -20.46 L 63.96 -4.73 Q 63.96 -4.48 63.99 -4.17 Q 64.01 -3.87 64.13 -3.62 Q 64.24 -3.37 64.46 -3.2 Q 64.68 -3.03 65.1 -3.03 L 65.1 -3.03 Q 65.6 -3.03 66.03 -3.41 Q 66.46 -3.79 66.8 -4.17 L 66.8 -4.17 L 67.49 -3.59 Q 67.08 -3.01 66.49 -2.31 Q 65.91 -1.61 65.07 -1 Q 64.24 -0.39 63.12 0.03 Q 62.01 0.45 60.59 0.45 L 60.59 0.45 Q 58.84 0.45 57.47 -0.6 Q 56.11 -1.64 55.69 -3.81 L 55.69 -3.81 Q 54.8 -2.62 53.84 -1.81 Q 52.88 -1 51.88 -0.5 Q 50.88 0 49.86 0.22 Q 48.85 0.45 47.82 0.45 L 47.82 0.45 Q 46.48 0.45 45.23 0.03 Q 43.97 -0.39 42.99 -1.29 Q 42 -2.2 41.4 -3.65 Q 40.8 -5.09 40.8 -7.18 Z M 48.96 -9.02 L 48.96 -9.02 Q 48.96 -7.4 49.19 -6.35 Q 49.43 -5.29 49.83 -4.66 Q 50.24 -4.04 50.77 -3.79 Q 51.29 -3.53 51.88 -3.53 L 51.88 -3.53 Q 52.6 -3.53 53.24 -3.91 Q 53.88 -4.29 54.36 -4.87 Q 54.83 -5.46 55.11 -6.18 Q 55.39 -6.9 55.39 -7.63 L 55.39 -7.63 L 55.39 -14.42 Q 55.39 -15.11 54.94 -15.47 Q 54.5 -15.84 53.8 -15.84 L 53.8 -15.84 Q 52.83 -15.84 51.95 -15.39 Q 51.07 -14.95 50.4 -14.08 Q 49.74 -13.22 49.35 -11.95 Q 48.96 -10.69 48.96 -9.02 Z M 68.33 -4.73 L 68.33 -4.73 L 69.3 -5.43 Q 69.66 -5.01 70.22 -4.52 Q 70.78 -4.04 71.46 -3.62 Q 72.14 -3.2 72.92 -2.94 Q 73.7 -2.67 74.51 -2.67 L 74.51 -2.67 Q 76.51 -2.67 77.79 -3.63 Q 79.07 -4.59 79.07 -6.48 L 79.07 -6.48 Q 79.07 -7.54 78.38 -8.67 Q 77.68 -9.8 76.62 -10.99 Q 75.56 -12.19 74.34 -13.47 Q 73.11 -14.75 72.06 -16.11 Q 71 -17.48 70.3 -18.93 Q 69.61 -20.37 69.61 -21.93 L 69.61 -21.93 Q 69.61 -23.69 70.32 -24.99 Q 71.03 -26.3 72.21 -27.16 Q 73.39 -28.03 74.91 -28.46 Q 76.43 -28.89 78.04 -28.89 L 78.04 -28.89 Q 79.91 -28.89 81.44 -28.56 Q 82.97 -28.22 84.07 -27.54 Q 85.17 -26.86 85.76 -25.83 Q 86.36 -24.8 86.36 -23.43 L 86.36 -23.43 Q 86.36 -22.38 85.67 -21.6 Q 84.97 -20.82 83.72 -20.82 L 83.72 -20.82 Q 82.52 -20.82 81.9 -21.33 Q 81.27 -21.85 81.27 -22.74 L 81.27 -22.74 Q 81.27 -23.32 81.56 -23.66 Q 81.85 -23.99 82.22 -24.2 Q 82.58 -24.41 82.87 -24.56 Q 83.16 -24.71 83.16 -24.97 L 83.16 -24.97 Q 83.16 -25.74 82.33 -26.2 Q 81.49 -26.66 80.18 -26.66 L 80.18 -26.66 Q 79.54 -26.66 78.97 -26.5 Q 78.4 -26.33 77.96 -25.95 Q 77.51 -25.58 77.26 -25.01 Q 77.01 -24.44 77.01 -23.66 L 77.01 -23.66 Q 77.01 -22.57 77.8 -21.5 Q 78.6 -20.43 79.78 -19.27 Q 80.96 -18.12 82.34 -16.88 Q 83.72 -15.64 84.9 -14.26 Q 86.08 -12.89 86.88 -11.33 Q 87.67 -9.77 87.67 -7.99 L 87.67 -7.99 Q 87.67 -5.98 86.99 -4.43 Q 86.31 -2.87 85.04 -1.78 Q 83.77 -0.7 81.98 -0.13 Q 80.18 0.45 77.99 0.45 L 77.99 0.45 Q 76.06 0.45 74.51 -0.1 Q 72.95 -0.64 71.74 -1.43 Q 70.53 -2.23 69.66 -3.12 Q 68.8 -4.01 68.33 -4.73 Z M 84.58 9.85 L 84.58 9.85 Q 84.58 9.32 84.75 8.82 Q 84.92 8.32 85.19 7.93 Q 85.47 7.54 85.86 7.31 Q 86.25 7.07 86.7 7.07 L 86.7 7.07 Q 87.23 7.07 87.57 7.6 Q 87.92 8.13 88.31 8.75 Q 88.7 9.38 89.26 9.91 Q 89.81 10.44 90.79 10.44 L 90.79 10.44 Q 92.04 10.44 93.4 10.01 Q 94.77 9.57 96.15 8.77 Q 97.52 7.96 98.9 6.8 Q 100.28 5.65 101.61 4.23 L 101.61 4.23 Q 100.84 1.42 99.82 -1.91 Q 98.8 -5.23 97.68 -8.6 Q 96.55 -11.97 95.37 -15.1 Q 94.18 -18.23 93.06 -20.65 Q 91.93 -23.07 90.89 -24.53 Q 89.84 -26 89.03 -26 L 89.03 -26 Q 88.51 -26 88.21 -25.83 Q 87.92 -25.66 87.53 -25.35 L 87.53 -25.35 L 86.98 -26.05 Q 87.53 -26.52 88.14 -27.02 Q 88.76 -27.53 89.59 -27.94 Q 90.43 -28.36 91.54 -28.63 Q 92.65 -28.89 94.21 -28.89 L 94.21 -28.89 Q 95.91 -28.89 97.37 -28.12 Q 98.83 -27.36 100.03 -25.3 L 100.03 -25.3 Q 100.89 -23.77 101.82 -21.63 Q 102.76 -19.48 103.7 -16.84 Q 104.65 -14.19 105.61 -11.12 Q 106.57 -8.04 107.54 -4.68 L 107.54 -4.68 Q 109.27 -8.29 110.33 -12.34 Q 111.38 -16.39 111.38 -20.68 L 111.38 -20.68 Q 111.38 -22.21 111.19 -23.3 Q 110.99 -24.38 110.74 -25.15 Q 110.49 -25.91 110.3 -26.45 Q 110.1 -27 110.1 -27.41 L 110.1 -27.41 Q 110.1 -27.83 110.44 -28.12 Q 110.77 -28.42 111.24 -28.58 Q 111.72 -28.75 112.2 -28.82 Q 112.69 -28.89 113.03 -28.89 L 113.03 -28.89 Q 113.78 -28.89 114.18 -28.58 Q 114.58 -28.28 114.78 -27.71 Q 114.97 -27.14 115 -26.33 Q 115.03 -25.52 115.03 -24.52 L 115.03 -24.52 Q 115.03 -19.43 114.04 -14.68 Q 113.05 -9.94 111.31 -5.78 Q 109.57 -1.61 107.18 1.82 Q 104.79 5.26 101.98 7.71 Q 99.17 10.16 96.03 11.52 Q 92.9 12.89 89.7 12.89 L 89.7 12.89 Q 87.25 12.89 85.92 12.07 Q 84.58 11.24 84.58 9.85 Z M 130.06 -1.48 L 130.06 -1.48 Q 130.06 -2.14 130.27 -2.91 Q 130.48 -3.67 130.88 -4.31 Q 131.28 -4.95 131.9 -5.39 Q 132.51 -5.82 133.32 -5.82 L 133.32 -5.82 Q 134.15 -5.82 134.67 -5.4 Q 135.18 -4.98 135.49 -4.29 Q 135.79 -3.59 135.99 -2.7 Q 136.18 -1.81 136.4 -0.89 Q 136.63 0.03 136.96 0.92 Q 137.3 1.81 137.88 2.5 Q 138.46 3.2 139.38 3.62 Q 140.3 4.04 141.69 4.04 L 141.69 4.04 Q 142.81 4.04 143.89 3.63 Q 144.98 3.23 145.83 2.3 Q 146.67 1.36 147.2 -0.14 Q 147.73 -1.64 147.73 -3.81 L 147.73 -3.81 Q 147.73 -6.15 146.58 -8.35 Q 145.42 -10.55 143.68 -12.68 Q 141.94 -14.81 139.93 -16.91 Q 137.91 -19.01 136.17 -21.19 Q 134.43 -23.38 133.27 -25.7 Q 132.12 -28.03 132.12 -30.56 L 132.12 -30.56 Q 132.12 -33.09 133.05 -35.14 Q 133.98 -37.18 135.58 -38.62 Q 137.18 -40.05 139.31 -40.83 Q 141.44 -41.61 143.86 -41.61 L 143.86 -41.61 Q 146.45 -41.61 148.47 -41.07 Q 150.49 -40.52 151.89 -39.59 Q 153.3 -38.66 154.02 -37.39 Q 154.75 -36.13 154.75 -34.71 L 154.75 -34.71 Q 154.75 -34.04 154.55 -33.33 Q 154.36 -32.62 153.94 -32.03 Q 153.52 -31.45 152.88 -31.06 Q 152.24 -30.67 151.38 -30.67 L 151.38 -30.67 Q 150.35 -30.67 149.86 -31.3 Q 149.37 -31.92 149.14 -32.84 Q 148.9 -33.76 148.73 -34.86 Q 148.57 -35.96 148.21 -36.88 Q 147.84 -37.8 147.12 -38.42 Q 146.4 -39.05 145 -39.05 L 145 -39.05 Q 144.25 -39.05 143.52 -38.71 Q 142.78 -38.38 142.18 -37.7 Q 141.58 -37.02 141.22 -35.96 Q 140.86 -34.9 140.86 -33.45 L 140.86 -33.45 Q 140.86 -31.78 141.55 -30.2 Q 142.25 -28.61 143.39 -27.07 Q 144.53 -25.52 145.99 -23.98 Q 147.45 -22.43 148.97 -20.86 Q 150.49 -19.29 151.95 -17.63 Q 153.41 -15.98 154.55 -14.19 Q 155.69 -12.41 156.39 -10.46 Q 157.08 -8.52 157.08 -6.37 L 157.08 -6.37 Q 157.08 -3.23 155.87 -0.77 Q 154.66 1.7 152.59 3.38 Q 150.52 5.07 147.73 5.96 Q 144.95 6.85 141.8 6.85 L 141.8 6.85 Q 138.97 6.85 136.78 6.14 Q 134.6 5.43 133.09 4.26 Q 131.59 3.09 130.82 1.6 Q 130.06 0.11 130.06 -1.48 Z M 159.2 -39.8 L 158.64 -40.47 Q 159.28 -41 160.06 -41.51 Q 160.84 -42.03 161.77 -42.42 Q 162.71 -42.81 163.76 -43.06 Q 164.82 -43.31 165.99 -43.31 L 165.99 -43.31 Q 167.8 -43.31 168.8 -42.82 Q 169.8 -42.33 170.28 -41.62 Q 170.75 -40.91 170.85 -40.12 Q 170.94 -39.33 170.94 -38.71 L 170.94 -38.71 L 170.94 -23.6 Q 171.97 -25.08 173.28 -26.25 L 173.28 -26.25 Q 173.81 -26.75 174.47 -27.22 Q 175.12 -27.69 175.86 -28.07 Q 176.59 -28.44 177.42 -28.67 Q 178.24 -28.89 179.1 -28.89 L 179.1 -28.89 Q 180.96 -28.89 182.44 -28.17 Q 183.91 -27.44 184.92 -25.74 Q 185.92 -24.05 186.45 -21.25 Q 186.98 -18.45 186.98 -14.31 L 186.98 -14.31 Q 186.98 -10.27 186.25 -7.29 Q 185.53 -4.31 184.36 -2.23 Q 183.19 -0.14 181.72 1.18 Q 180.24 2.5 178.74 3.26 Q 177.23 4.01 175.84 4.3 Q 174.45 4.59 173.45 4.62 L 173.45 4.62 L 173.17 3.48 Q 174.42 3.17 175.4 2.34 Q 176.37 1.5 177.04 -0.4 Q 177.71 -2.31 178.06 -5.54 Q 178.4 -8.77 178.4 -13.86 L 178.4 -13.86 Q 178.4 -17.37 178.08 -19.47 Q 177.76 -21.57 177.25 -22.67 Q 176.73 -23.77 176.08 -24.12 Q 175.43 -24.46 174.76 -24.46 L 174.76 -24.46 Q 173.95 -24.46 173.34 -24.03 Q 172.73 -23.6 172.27 -23.04 Q 171.81 -22.49 171.49 -21.93 Q 171.17 -21.38 170.94 -21.1 L 170.94 -21.1 L 170.94 -2.5 Q 170.94 -2.14 170.83 -1.63 Q 170.72 -1.11 170.29 -0.65 Q 169.86 -0.19 169.01 0.13 Q 168.16 0.45 166.69 0.45 L 166.69 0.45 Q 165.21 0.45 164.35 0.1 Q 163.49 -0.25 163.05 -0.72 Q 162.62 -1.2 162.51 -1.7 Q 162.4 -2.2 162.4 -2.5 L 162.4 -2.5 L 162.4 -38.41 Q 162.4 -39.22 162.02 -39.81 Q 161.65 -40.41 160.76 -40.41 L 160.76 -40.41 Q 160.28 -40.41 159.94 -40.26 Q 159.59 -40.11 159.2 -39.8 L 159.2 -39.8 Z M 190.96 -14.25 L 190.96 -14.25 Q 190.96 -17.9 192.01 -20.64 Q 193.07 -23.38 194.84 -25.22 Q 196.61 -27.05 198.94 -27.97 Q 201.28 -28.89 203.84 -28.89 L 203.84 -28.89 Q 206.4 -28.89 208.74 -28.04 Q 211.08 -27.19 212.85 -25.44 Q 214.61 -23.69 215.67 -21 Q 216.73 -18.31 216.73 -14.64 L 216.73 -14.64 Q 216.73 -10.99 215.67 -8.18 Q 214.61 -5.37 212.85 -3.45 Q 211.08 -1.53 208.74 -0.54 Q 206.4 0.45 203.84 0.45 L 203.84 0.45 Q 201.28 0.45 198.94 -0.49 Q 196.61 -1.42 194.84 -3.26 Q 193.07 -5.09 192.01 -7.85 Q 190.96 -10.6 190.96 -14.25 Z M 199.64 -14.25 L 199.64 -14.25 Q 199.64 -12.02 199.78 -9.89 Q 199.92 -7.77 200.36 -6.1 Q 200.81 -4.43 201.64 -3.41 Q 202.48 -2.39 203.84 -2.39 L 203.84 -2.39 Q 205.21 -2.39 206.04 -3.45 Q 206.88 -4.51 207.32 -6.23 Q 207.77 -7.96 207.92 -10.13 Q 208.07 -12.3 208.07 -14.53 L 208.07 -14.53 Q 208.07 -16.75 207.92 -18.83 Q 207.77 -20.9 207.32 -22.52 Q 206.88 -24.13 206.04 -25.09 Q 205.21 -26.05 203.84 -26.05 L 203.84 -26.05 Q 202.48 -26.05 201.64 -25.03 Q 200.81 -24.02 200.36 -22.36 Q 199.92 -20.71 199.78 -18.59 Q 199.64 -16.48 199.64 -14.25 Z M 219.09 -25.35 L 218.51 -26.05 Q 219.15 -26.58 219.94 -27.09 Q 220.74 -27.61 221.65 -28 Q 222.57 -28.39 223.63 -28.64 Q 224.69 -28.89 225.86 -28.89 L 225.86 -28.89 Q 227.11 -28.89 228 -28.5 Q 228.89 -28.11 229.49 -27.57 Q 230.09 -27.02 230.39 -26.43 Q 230.7 -25.83 230.76 -25.41 L 230.76 -25.41 Q 231.31 -26.19 232.08 -26.83 Q 232.84 -27.47 233.75 -27.93 Q 234.65 -28.39 235.67 -28.64 Q 236.68 -28.89 237.77 -28.89 L 237.77 -28.89 Q 240 -28.89 241.8 -27.97 Q 243.61 -27.05 244.91 -25.24 Q 246.2 -23.43 246.9 -20.76 Q 247.59 -18.09 247.59 -14.58 L 247.59 -14.58 Q 247.59 -10.52 246.74 -7.67 Q 245.9 -4.81 244.52 -3.01 Q 243.14 -1.2 241.37 -0.38 Q 239.61 0.45 237.77 0.45 L 237.77 0.45 Q 236.24 0.45 235.08 0.14 Q 233.93 -0.17 233.09 -0.61 Q 232.26 -1.06 231.7 -1.52 Q 231.15 -1.98 230.81 -2.28 L 230.81 -2.28 L 230.81 11.3 Q 230.81 11.66 230.7 12.16 Q 230.59 12.66 230.16 13.12 Q 229.73 13.58 228.88 13.92 Q 228.03 14.25 226.55 14.25 L 226.55 14.25 Q 225.08 14.25 224.23 13.9 Q 223.38 13.55 222.93 13.07 Q 222.49 12.58 222.38 12.09 Q 222.27 11.61 222.27 11.3 L 222.27 11.3 L 222.27 -23.99 Q 222.27 -24.8 221.89 -25.4 Q 221.52 -26 220.62 -26 L 220.62 -26 Q 220.15 -26 219.82 -25.83 Q 219.48 -25.66 219.09 -25.35 L 219.09 -25.35 Z M 230.81 -21.76 L 230.81 -6.26 Q 230.81 -6.04 231.01 -5.48 Q 231.2 -4.93 231.62 -4.34 Q 232.04 -3.76 232.69 -3.3 Q 233.34 -2.84 234.29 -2.84 L 234.29 -2.84 Q 235.51 -2.84 236.38 -3.77 Q 237.24 -4.7 237.8 -6.3 Q 238.35 -7.9 238.6 -10.03 Q 238.85 -12.16 238.85 -14.58 L 238.85 -14.58 Q 238.85 -17.56 238.53 -19.62 Q 238.21 -21.68 237.6 -22.95 Q 236.99 -24.21 236.14 -24.78 Q 235.29 -25.35 234.23 -25.35 L 234.23 -25.35 Q 233.62 -25.35 233.01 -25.01 Q 232.4 -24.66 231.91 -24.14 Q 231.42 -23.63 231.12 -22.99 Q 230.81 -22.35 230.81 -21.76 L 230.81 -21.76 Z M 250.04 -25.35 L 249.46 -26.05 Q 250.1 -26.58 250.89 -27.09 Q 251.69 -27.61 252.6 -28 Q 253.52 -28.39 254.58 -28.64 Q 255.64 -28.89 256.81 -28.89 L 256.81 -28.89 Q 258.06 -28.89 258.95 -28.5 Q 259.84 -28.11 260.44 -27.57 Q 261.04 -27.02 261.34 -26.43 Q 261.65 -25.83 261.7 -25.41 L 261.7 -25.41 Q 262.26 -26.19 263.03 -26.83 Q 263.79 -27.47 264.7 -27.93 Q 265.6 -28.39 266.62 -28.64 Q 267.63 -28.89 268.72 -28.89 L 268.72 -28.89 Q 270.94 -28.89 272.75 -27.97 Q 274.56 -27.05 275.86 -25.24 Q 277.15 -23.43 277.85 -20.76 Q 278.54 -18.09 278.54 -14.58 L 278.54 -14.58 Q 278.54 -10.52 277.69 -7.67 Q 276.85 -4.81 275.47 -3.01 Q 274.09 -1.2 272.32 -0.38 Q 270.56 0.45 268.72 0.45 L 268.72 0.45 Q 267.19 0.45 266.03 0.14 Q 264.88 -0.17 264.04 -0.61 Q 263.21 -1.06 262.65 -1.52 Q 262.09 -1.98 261.76 -2.28 L 261.76 -2.28 L 261.76 11.3 Q 261.76 11.66 261.65 12.16 Q 261.54 12.66 261.11 13.12 Q 260.67 13.58 259.83 13.92 Q 258.98 14.25 257.5 14.25 L 257.5 14.25 Q 256.03 14.25 255.18 13.9 Q 254.33 13.55 253.88 13.07 Q 253.44 12.58 253.33 12.09 Q 253.22 11.61 253.22 11.3 L 253.22 11.3 L 253.22 -23.99 Q 253.22 -24.8 252.84 -25.4 Q 252.46 -26 251.57 -26 L 251.57 -26 Q 251.1 -26 250.77 -25.83 Q 250.43 -25.66 250.04 -25.35 L 250.04 -25.35 Z M 261.76 -21.76 L 261.76 -6.26 Q 261.76 -6.04 261.96 -5.48 Q 262.15 -4.93 262.57 -4.34 Q 262.98 -3.76 263.64 -3.3 Q 264.29 -2.84 265.24 -2.84 L 265.24 -2.84 Q 266.46 -2.84 267.33 -3.77 Q 268.19 -4.7 268.75 -6.3 Q 269.3 -7.9 269.55 -10.03 Q 269.8 -12.16 269.8 -14.58 L 269.8 -14.58 Q 269.8 -17.56 269.48 -19.62 Q 269.16 -21.68 268.55 -22.95 Q 267.94 -24.21 267.09 -24.78 Q 266.24 -25.35 265.18 -25.35 L 265.18 -25.35 Q 264.57 -25.35 263.96 -25.01 Q 263.35 -24.66 262.86 -24.14 Q 262.37 -23.63 262.07 -22.99 Q 261.76 -22.35 261.76 -21.76 L 261.76 -21.76 Z M 280.99 -25.35 L 280.41 -26.05 Q 281.05 -26.58 281.84 -27.09 Q 282.63 -27.61 283.55 -28 Q 284.47 -28.39 285.53 -28.64 Q 286.59 -28.89 287.76 -28.89 L 287.76 -28.89 Q 289.56 -28.89 290.57 -28.4 Q 291.57 -27.92 292.04 -27.21 Q 292.51 -26.5 292.61 -25.69 Q 292.71 -24.88 292.71 -24.27 L 292.71 -24.27 L 292.71 -2.5 Q 292.71 -2.14 292.58 -1.63 Q 292.46 -1.11 292 -0.65 Q 291.54 -0.19 290.68 0.13 Q 289.81 0.45 288.34 0.45 L 288.34 0.45 Q 286.86 0.45 286.03 0.1 Q 285.19 -0.25 284.78 -0.72 Q 284.36 -1.2 284.26 -1.7 Q 284.17 -2.2 284.17 -2.5 L 284.17 -2.5 L 284.17 -23.99 Q 284.17 -24.8 283.79 -25.4 Q 283.41 -26 282.52 -26 L 282.52 -26 Q 282.05 -26 281.72 -25.83 Q 281.38 -25.66 280.99 -25.35 L 280.99 -25.35 Z M 283.3 -35.24 L 283.3 -35.24 Q 283.3 -36.01 283.65 -36.72 Q 284 -37.43 284.62 -37.96 Q 285.25 -38.49 286.07 -38.8 Q 286.89 -39.1 287.87 -39.1 L 287.87 -39.1 Q 288.81 -39.1 289.63 -38.8 Q 290.46 -38.49 291.07 -37.96 Q 291.68 -37.43 292.03 -36.72 Q 292.38 -36.01 292.38 -35.24 L 292.38 -35.24 Q 292.38 -34.43 292.03 -33.73 Q 291.68 -33.04 291.07 -32.52 Q 290.46 -32.01 289.63 -31.7 Q 288.81 -31.39 287.87 -31.39 L 287.87 -31.39 Q 286.89 -31.39 286.07 -31.7 Q 285.25 -32.01 284.62 -32.52 Q 284 -33.04 283.65 -33.73 Q 283.3 -34.43 283.3 -35.24 Z M 296.88 -25.35 L 296.3 -26.05 Q 296.94 -26.58 297.73 -27.09 Q 298.53 -27.61 299.44 -28 Q 300.36 -28.39 301.42 -28.64 Q 302.48 -28.89 303.65 -28.89 L 303.65 -28.89 Q 305.46 -28.89 306.46 -28.29 Q 307.46 -27.69 307.93 -26.86 Q 308.41 -26.02 308.5 -25.12 Q 308.6 -24.21 308.6 -23.6 L 308.6 -23.6 Q 309.63 -25.08 310.94 -26.25 L 310.94 -26.25 Q 311.47 -26.75 312.12 -27.22 Q 312.78 -27.69 313.51 -28.07 Q 314.25 -28.44 315.07 -28.67 Q 315.89 -28.89 316.76 -28.89 L 316.76 -28.89 Q 318.65 -28.89 320.11 -28.17 Q 321.57 -27.44 322.57 -25.74 Q 323.58 -24.05 324.1 -21.25 Q 324.63 -18.45 324.63 -14.31 L 324.63 -14.31 Q 324.63 -10.27 323.91 -7.29 Q 323.19 -4.31 322.02 -2.23 Q 320.85 -0.14 319.37 1.18 Q 317.9 2.5 316.39 3.26 Q 314.89 4.01 313.51 4.3 Q 312.14 4.59 311.13 4.62 L 311.13 4.62 L 310.83 3.48 Q 311.66 3.28 312.37 2.87 Q 313.08 2.45 313.67 1.64 Q 314.25 0.83 314.7 -0.4 Q 315.14 -1.64 315.46 -3.51 Q 315.78 -5.37 315.94 -7.92 Q 316.09 -10.46 316.09 -13.86 L 316.09 -13.86 Q 316.09 -17.37 315.77 -19.47 Q 315.45 -21.57 314.92 -22.67 Q 314.39 -23.77 313.75 -24.12 Q 313.11 -24.46 312.44 -24.46 L 312.44 -24.46 Q 311.64 -24.46 311.01 -24.03 Q 310.38 -23.6 309.92 -23.04 Q 309.46 -22.49 309.14 -21.93 Q 308.82 -21.38 308.6 -21.1 L 308.6 -21.1 L 308.6 -2.5 Q 308.6 -2.14 308.49 -1.63 Q 308.38 -1.11 307.95 -0.65 Q 307.52 -0.19 306.67 0.13 Q 305.82 0.45 304.34 0.45 L 304.34 0.45 Q 302.87 0.45 302.02 0.1 Q 301.17 -0.25 300.73 -0.72 Q 300.28 -1.2 300.17 -1.7 Q 300.06 -2.2 300.06 -2.5 L 300.06 -2.5 L 300.06 -23.99 Q 300.06 -24.8 299.68 -25.4 Q 299.31 -26 298.42 -26 L 298.42 -26 Q 297.94 -26 297.61 -25.83 Q 297.27 -25.66 296.88 -25.35 L 296.88 -25.35 Z M 328.61 8.49 L 328.61 8.49 Q 328.61 7.51 329.06 6.69 Q 329.5 5.87 330.24 5.19 Q 330.98 4.51 331.9 3.97 Q 332.82 3.42 333.76 2.95 L 333.76 2.95 Q 332.37 2.37 331.44 1.18 Q 330.51 0 330.51 -1.95 L 330.51 -1.95 Q 330.51 -2.98 330.87 -3.85 Q 331.23 -4.73 331.8 -5.47 Q 332.37 -6.21 333.05 -6.8 Q 333.73 -7.4 334.37 -7.82 L 334.37 -7.82 Q 333.23 -8.49 332.27 -9.45 Q 331.31 -10.41 330.63 -11.62 Q 329.95 -12.83 329.57 -14.31 Q 329.2 -15.78 329.2 -17.51 L 329.2 -17.51 Q 329.2 -20.35 330.19 -22.47 Q 331.17 -24.6 332.84 -26.04 Q 334.51 -27.47 336.71 -28.18 Q 338.91 -28.89 341.33 -28.89 L 341.33 -28.89 Q 343.75 -28.89 345.92 -28.25 Q 348.1 -27.61 349.77 -26.27 L 349.77 -26.27 Q 350.29 -27.08 350.63 -27.97 Q 350.96 -28.86 350.96 -29.75 L 350.96 -29.75 Q 350.96 -30.92 350.34 -31.62 Q 349.71 -32.31 348.74 -32.31 L 348.74 -32.31 L 348.74 -33.12 Q 349.35 -33.31 349.82 -33.47 Q 350.29 -33.62 350.68 -33.7 Q 351.07 -33.79 351.46 -33.83 Q 351.85 -33.87 352.33 -33.87 L 352.33 -33.87 Q 353.63 -33.87 354.33 -33.06 Q 355.03 -32.26 355.03 -30.84 L 355.03 -30.84 Q 355.03 -30 354.64 -29.18 Q 354.25 -28.36 353.66 -27.61 Q 353.08 -26.86 352.37 -26.19 Q 351.66 -25.52 351.02 -25.02 L 351.02 -25.02 Q 352.19 -23.69 352.83 -21.9 Q 353.47 -20.12 353.47 -17.84 L 353.47 -17.84 Q 353.47 -14.97 352.48 -12.77 Q 351.49 -10.58 349.82 -9.07 Q 348.15 -7.57 345.95 -6.8 Q 343.75 -6.04 341.33 -6.04 L 341.33 -6.04 Q 339.91 -6.04 338.55 -6.29 Q 337.19 -6.54 335.99 -7.01 L 335.99 -7.01 Q 335.54 -6.68 335.22 -6.18 Q 334.9 -5.68 334.9 -5.07 L 334.9 -5.07 Q 334.9 -4.04 335.79 -3.53 Q 336.68 -3.03 338.16 -2.81 Q 339.63 -2.59 341.5 -2.53 Q 343.36 -2.48 345.33 -2.35 Q 347.29 -2.23 349.15 -1.88 Q 351.02 -1.53 352.49 -0.74 Q 353.97 0.06 354.86 1.42 Q 355.75 2.78 355.75 4.95 L 355.75 4.95 Q 355.75 6.54 355.08 7.81 Q 354.41 9.07 353.29 10.03 Q 352.16 10.99 350.67 11.68 Q 349.18 12.36 347.52 12.79 Q 345.87 13.22 344.16 13.42 Q 342.45 13.61 340.89 13.61 L 340.89 13.61 Q 338.05 13.61 335.78 13.32 Q 333.51 13.03 331.92 12.41 Q 330.34 11.8 329.48 10.83 Q 328.61 9.85 328.61 8.49 Z M 333.07 7.88 L 333.07 7.88 Q 333.07 8.93 333.68 9.64 Q 334.29 10.35 335.33 10.77 Q 336.38 11.19 337.76 11.36 Q 339.13 11.52 340.66 11.52 L 340.66 11.52 Q 342.7 11.52 344.31 11.17 Q 345.92 10.83 347.04 10.23 Q 348.15 9.63 348.74 8.85 Q 349.32 8.07 349.32 7.18 L 349.32 7.18 Q 349.32 6.29 348.62 5.72 Q 347.93 5.15 346.8 4.8 Q 345.67 4.45 344.24 4.27 Q 342.81 4.09 341.33 3.99 Q 339.86 3.9 338.47 3.81 Q 337.07 3.73 336.04 3.59 L 336.04 3.59 Q 335.46 4.01 334.92 4.49 Q 334.37 4.98 333.97 5.52 Q 333.57 6.07 333.32 6.67 Q 333.07 7.26 333.07 7.88 Z M 337.57 -17.51 L 337.57 -17.51 Q 337.57 -15.86 337.74 -14.28 Q 337.91 -12.69 338.33 -11.44 Q 338.74 -10.19 339.47 -9.42 Q 340.19 -8.66 341.33 -8.66 L 341.33 -8.66 Q 342.47 -8.66 343.2 -9.46 Q 343.92 -10.27 344.34 -11.56 Q 344.76 -12.86 344.92 -14.47 Q 345.09 -16.09 345.09 -17.73 L 345.09 -17.73 Q 345.09 -19.34 344.92 -20.87 Q 344.76 -22.4 344.34 -23.6 Q 343.92 -24.8 343.2 -25.54 Q 342.47 -26.27 341.33 -26.27 L 341.33 -26.27 Q 340.19 -26.27 339.47 -25.51 Q 338.74 -24.74 338.33 -23.5 Q 337.91 -22.27 337.74 -20.69 Q 337.57 -19.12 337.57 -17.51 Z" stroke-linecap="round" />
</g>
</svg>