<?xml version="1.0" encoding="iso-8859-1"?>
<!-- Generator: Adobe Illustrator 19.0.0, SVG Export Plug-In . SVG Version: 6.00 Build 0)  -->
<svg version="1.1" id="Capa_1" xmlns="http://www.w3.org/2000/svg" xmlns:xlink="http://www.w3.org/1999/xlink" x="0px" y="0px"
	 viewBox="0 0 512 512" style="enable-background:new 0 0 512 512;" xml:space="preserve">
<polygon style="fill:#D8D8E4;" points="256.506,121.5 256.5,121.5 64.5,214.5 256.5,307.5 256.506,307.5 448.506,214.5 
	448.506,214.5 "/>
<polyline style="fill:#FFC66C;" points="448.003,297.5 448.003,409 256.003,502 255.997,502 63.997,409 63.997,297.5 "/>
<polygon style="fill:#FFB954;" points="448.003,297.5 256.003,297.5 256.003,502 448.003,409 "/>
<g>
	<polygon style="fill:#FEDA9B;" points="501.997,268.494 312.503,364 256.003,307.5 448.003,214.5 	"/>
	<polygon style="fill:#FEDA9B;" points="10.003,268.494 199.497,364 255.997,307.5 63.997,214.5 	"/>
</g>
<polygon style="fill:#62CD4D;" points="256.06,10 145.06,71.5 145.06,194.5 256.06,256 367.06,194.5 367.06,71.5 "/>
<polygon style="fill:#A0E557;" points="145.06,194.504 255.946,255.94 255.946,133.004 145.06,71.567 "/>
<polygon style="fill:#D8FB93;" points="145.003,71.5 256.003,133 367.003,71.5 256.003,10 "/>
<path d="M509.068,261.423l-53.994-53.994c-0.806-0.806-1.727-1.446-2.713-1.923c0-0.002,0.001-0.004,0.001-0.005l-75.417-36.53V71.5
	c0-3.633-1.971-6.98-5.147-8.743l-32.851-18.233c-4.828-2.681-10.917-0.939-13.596,3.891c-2.681,4.828-0.938,10.916,3.891,13.596
	l17.083,9.482l-90.38,50.075L165.579,71.5l90.372-50.071l19.767,10.927c4.837,2.672,10.918,0.92,13.59-3.914
	s0.919-10.918-3.914-13.59l-24.61-13.604c-3.016-1.666-6.673-1.663-9.685,0.005l-111,61.5c-3.18,1.762-5.153,5.111-5.153,8.747
	v97.523L59.638,205.5c0.001,0.001,0.002,0.002,0.004,0.004c-0.988,0.478-1.909,1.118-2.716,1.925L2.932,261.423
	c-2.269,2.27-3.312,5.489-2.802,8.657c0.509,3.168,2.507,5.899,5.372,7.344l48.495,24.442V409c0,3.833,2.191,7.329,5.641,9
	l61.385,29.733c1.404,0.68,2.89,1.002,4.353,1.002c3.713,0,7.279-2.077,9.007-5.643c2.407-4.971,0.33-10.951-4.641-13.359
	l-55.744-27.001v-90.787l120.999,60.984c1.43,0.721,2.97,1.07,4.498,1.07c2.594,0,5.153-1.009,7.074-2.929l39.435-39.435v154.411
	l-51.15-24.776c-4.967-2.403-10.95-0.329-13.359,4.641c-2.407,4.971-0.33,10.951,4.641,13.359L251.638,511
	c1.359,0.658,2.855,1,4.365,1c1.51,0,3-0.342,4.359-1l192-93c3.449-1.671,5.641-5.167,5.641-9V301.865l48.495-24.442
	c2.865-1.444,4.863-4.176,5.372-7.344C512.38,266.912,511.337,263.692,509.068,261.423z M154.945,88.472l91,50.419v100.135
	l-91-50.418V88.472z M265.945,138.892l91-50.419v100.135l-91,50.418V138.892z M140.099,203.247l111,61.5
	c1.508,0.835,3.177,1.253,4.847,1.253s3.339-0.418,4.847-1.253l111-61.5c3.18-1.762,5.153-5.111,5.153-8.747v-3.307l48.118,23.307
	L256,296.39L86.937,214.5l48.008-23.254v3.254C134.945,198.135,136.919,201.485,140.099,203.247z M197.54,351.815L26.851,265.788
	L66.039,226.6l172.945,83.771L197.54,351.815z M438.003,402.732l-172,83.312V331.642l39.429,39.429
	c1.921,1.92,4.48,2.929,7.074,2.929c1.528,0,3.069-0.35,4.498-1.07l120.999-60.984V402.732z M314.46,351.815l-41.444-41.444
	L445.961,226.6l39.188,39.188L314.46,351.815z"/>
<path d="M156.963,444.03c-2.63,0-5.21,1.069-7.07,2.93c-1.86,1.859-2.93,4.439-2.93,7.07c0,2.63,1.069,5.21,2.93,7.069
	c1.87,1.86,4.44,2.931,7.07,2.931s5.21-1.07,7.069-2.931c1.86-1.859,2.931-4.439,2.931-7.069c0-2.631-1.07-5.211-2.931-7.07
	C162.182,445.099,159.602,444.03,156.963,444.03z"/>
<path d="M307.203,48.399c2.63,0,5.21-1.069,7.069-2.93c1.86-1.86,2.931-4.439,2.931-7.07c0-2.63-1.07-5.21-2.931-7.069
	c-1.859-1.86-4.439-2.931-7.069-2.931c-2.641,0-5.21,1.07-7.07,2.931c-1.86,1.859-2.93,4.43-2.93,7.069
	c0,2.631,1.069,5.21,2.93,7.07S304.562,48.399,307.203,48.399z"/>
<path d="M448.003,96.319c5.522,0,10-4.478,10-10V22.168c0-5.522-4.478-10-10-10s-10,4.478-10,10v64.151
	C438.003,91.842,442.48,96.319,448.003,96.319z"/>
<path d="M448.003,138.17c2.63,0,5.21-1.07,7.069-2.93c1.86-1.86,2.931-4.44,2.931-7.07c0-2.63-1.07-5.21-2.931-7.07
	c-1.859-1.87-4.439-2.93-7.069-2.93s-5.21,1.06-7.07,2.93c-1.86,1.86-2.93,4.44-2.93,7.07c0,2.63,1.069,5.21,2.93,7.07
	C442.793,137.099,445.373,138.17,448.003,138.17z"/>
<path d="M64.003,99c5.522,0,10-4.478,10-10V63.986c0-5.522-4.478-10-10-10s-10,4.478-10,10V89C54.003,94.522,58.48,99,64.003,99z"/>
<path d="M64.003,163.653c5.522,0,10-4.478,10-10V133c0-5.522-4.478-10-10-10s-10,4.478-10,10v20.653
	C54.003,159.176,58.48,163.653,64.003,163.653z"/>
<g>
</g>
<g>
</g>
<g>
</g>
<g>
</g>
<g>
</g>
<g>
</g>
<g>
</g>
<g>
</g>
<g>
</g>
<g>
</g>
<g>
</g>
<g>
</g>
<g>
</g>
<g>
</g>
<g>
</g>
</svg>
